<svg xmlns="http://www.w3.org/2000/svg" width="720" height="460" viewBox="0 0 720 460" role="img" aria-labelledby="title desc">
  <title id="title">Verified location map</title>
  <desc id="desc">A green map illustration with verified location markers.</desc>
  <defs>
    <linearGradient id="bg" x1="0" y1="0" x2="1" y2="1">
      <stop offset="0" stop-color="#dff0df"/>
      <stop offset="1" stop-color="#9bc6a8"/>
    </linearGradient>
  </defs>
  <rect width="720" height="460" fill="url(#bg)"/>
  <path d="M70 350c84-94 155-104 213-30 56 72 126 66 210-18 63-63 114-76 157-38" fill="none" stroke="#116045" stroke-width="34" stroke-linecap="round" opacity=".28"/>
  <path d="M92 118c102 38 178 39 229 3 57-41 121-37 194 12 50 33 88 42 115 27" fill="none" stroke="#ffffff" stroke-width="18" stroke-linecap="round" opacity=".76"/>
  <circle cx="196" cy="236" r="54" fill="#ffffff" opacity=".86"/>
  <path d="M196 176c-30 0-54 24-54 54 0 48 54 109 54 109s54-61 54-109c0-30-24-54-54-54zm0 76a23 23 0 1 1 0-46 23 23 0 0 1 0 46z" fill="#0d4e38"/>
  <circle cx="494" cy="220" r="42" fill="#ffffff" opacity=".9"/>
  <path d="M494 174c-24 0-43 19-43 43 0 38 43 87 43 87s43-49 43-87c0-24-19-43-43-43zm0 60a18 18 0 1 1 0-36 18 18 0 0 1 0 36z" fill="#b94c29"/>
  <path d="M318 304l34 34 74-88" fill="none" stroke="#116045" stroke-width="20" stroke-linecap="round" stroke-linejoin="round"/>
</svg>
